<svg width="24" height="24" viewBox="0 0 24 24" fill="none" xmlns="http://www.w3.org/2000/svg">
<path d="M21.9332 13.8359C19.4999 24 27.4332 26.0249 14.4332 19.0249C5.99988 20.5 8.86652 17.1718 7.93323 13.8359C6.99994 10.5 12.6195 7.83594 15.9332 7.83594C19.2469 7.83594 22.4072 11.856 21.9332 13.8359Z" fill="#06643D"/>
<path d="M14.5852 17.0795C14.1951 17.0795 13.8466 17.0123 13.5398 16.8778C13.2348 16.7434 12.9934 16.5568 12.8153 16.3182C12.6392 16.0777 12.5445 15.7992 12.5312 15.483H13.4233C13.4347 15.6553 13.4924 15.8049 13.5966 15.9318C13.7027 16.0568 13.8409 16.1534 14.0114 16.2216C14.1818 16.2898 14.3712 16.3239 14.5795 16.3239C14.8087 16.3239 15.0114 16.2841 15.1875 16.2045C15.3655 16.125 15.5047 16.0142 15.6051 15.8722C15.7055 15.7282 15.7557 15.5625 15.7557 15.375C15.7557 15.1799 15.7055 15.0085 15.6051 14.8608C15.5066 14.7112 15.3617 14.5937 15.1705 14.5085C14.9811 14.4233 14.7519 14.3807 14.483 14.3807H13.9915V13.6648H14.483C14.6989 13.6648 14.8883 13.6259 15.0511 13.5483C15.2159 13.4706 15.3447 13.3627 15.4375 13.2244C15.5303 13.0843 15.5767 12.9205 15.5767 12.733C15.5767 12.553 15.536 12.3968 15.4545 12.2642C15.375 12.1297 15.2614 12.0246 15.1136 11.9489C14.9678 11.8731 14.7955 11.8352 14.5966 11.8352C14.4072 11.8352 14.2301 11.8703 14.0653 11.9403C13.9025 12.0085 13.7699 12.107 13.6676 12.2358C13.5653 12.3627 13.5104 12.5152 13.5028 12.6932H12.6534C12.6629 12.3788 12.7557 12.1023 12.9318 11.8636C13.1098 11.625 13.3447 11.4384 13.6364 11.304C13.928 11.1695 14.2519 11.1023 14.608 11.1023C14.9811 11.1023 15.303 11.1752 15.5739 11.321C15.8466 11.465 16.0568 11.6572 16.2045 11.8977C16.3542 12.1383 16.428 12.4015 16.4261 12.6875C16.428 13.0133 16.3371 13.2898 16.1534 13.517C15.9716 13.7443 15.7292 13.8968 15.4261 13.9744V14.0199C15.8125 14.0786 16.1117 14.232 16.3239 14.4801C16.5379 14.7282 16.6439 15.036 16.642 15.4034C16.6439 15.7235 16.5549 16.0104 16.375 16.2642C16.197 16.518 15.9536 16.7178 15.6449 16.8636C15.3362 17.0076 14.983 17.0795 14.5852 17.0795Z" fill="white"/>
<path d="M21.61 18.8251C23.1359 17.4651 24 15.6524 24 13.7713C24 11.7721 23.0641 9.90242 21.3646 8.50633C19.7107 7.14804 17.5214 6.3999 15.1998 6.3999C12.8782 6.3999 10.689 7.14804 9.03522 8.50643C7.33579 9.90242 6.3999 11.7721 6.3999 13.7713C6.3999 15.7705 7.33579 17.6401 9.03522 19.0362C10.689 20.3946 12.8782 21.1427 15.1998 21.1427C15.5092 21.1427 15.8204 21.129 16.1291 21.1019L16.6563 21.5589C18.4729 23.1331 20.796 23.9996 23.1997 23.9997H23.9997V22.2969L23.7654 22.0626C22.8411 21.1356 22.1087 20.0355 21.61 18.8251ZM17.7042 20.3498L16.6462 19.4327L16.2934 19.476C15.9306 19.5203 14.8655 18.8251 14.5 18.8251C10.53 18.8251 7.99989 16.9536 7.99989 13.7713C7.99989 10.589 11.2299 8.50633 15.1998 8.50633C19.1698 8.50633 21.3646 10.5889 21.3646 13.7713C21.3646 15.3568 21.6087 16.8369 20.1725 17.9391L19.7117 18.2927L19.9243 18.8944C20.36 20.1234 21.0004 21.2698 21.8184 22.2852C20.295 22.031 18.8714 21.3612 17.7042 20.3498Z" fill="#088A06"/>
<path d="M2.20923 15.0736C2.95808 14.1257 3.54605 13.0612 3.94961 11.9225L4.16061 11.3238L3.70026 10.9705C2.34588 9.9312 1.59998 8.53631 1.59998 7.04278C1.59998 4.04161 4.6504 1.59998 8.39991 1.59998C11.1583 1.59998 13.5382 2.92147 14.6037 4.81495C14.8015 4.80535 15.0002 4.79995 15.1998 4.79995C15.6007 4.79995 15.998 4.8194 16.3915 4.8583C15.9798 3.79156 15.2647 2.81777 14.2816 2.01028C12.7035 0.713943 10.6149 0 8.39991 0C6.18494 0 4.09636 0.713943 2.51817 2.01028C0.894291 3.34422 0 5.13145 0 7.04278C0 8.83276 0.817591 10.5575 2.26248 11.8549C1.79095 12.9896 1.10197 14.0211 0.234348 14.8913L0 15.1256V16.7998H0.799992C2.27933 16.7996 3.73832 16.4551 5.0615 15.7936C4.91641 15.2437 4.83139 14.6796 4.80795 14.1114C4.00485 14.582 3.1252 14.9078 2.20923 15.0736Z" fill="#088A06"/>
</svg>
