<svg width="19" height="17" viewBox="0 0 19 17" fill="none" xmlns="http://www.w3.org/2000/svg">
<path d="M6.3244 6.16667H6.8244V5.66667V1.88889V1.38889H6.3244H2.10813H1.60813V1.88889V5.66667V6.16667H2.10813H6.3244ZM16.8651 6.16667H17.3651V5.66667V1.88889V1.38889H16.8651H12.6488H12.1488V1.88889V5.66667V6.16667H12.6488H16.8651ZM6.3244 15.6111H6.8244V15.1111V11.3333V10.8333H6.3244H2.10813H1.60813V11.3333V15.1111V15.6111H2.10813H6.3244ZM1.05407 0.5H7.37847C7.73828 0.5 7.93254 0.748532 7.93254 0.944444V6.61111C7.93254 6.80702 7.73828 7.05556 7.37847 7.05556H1.05407C0.694258 7.05556 0.5 6.80702 0.5 6.61111V0.944444C0.5 0.748532 0.694258 0.5 1.05407 0.5ZM11.5947 0.5H17.9191C18.279 0.5 18.4732 0.748532 18.4732 0.944444V6.61111C18.4732 6.80702 18.279 7.05556 17.9191 7.05556H11.5947C11.2349 7.05556 11.0407 6.80702 11.0407 6.61111V0.944444C11.0407 0.748531 11.2349 0.5 11.5947 0.5ZM1.05407 9.94444H7.37847C7.73828 9.94444 7.93254 10.193 7.93254 10.3889V16.0556C7.93254 16.2515 7.73828 16.5 7.37847 16.5H1.05407C0.694258 16.5 0.5 16.2515 0.5 16.0556V10.3889C0.5 10.193 0.694257 9.94444 1.05407 9.94444ZM11.0407 13.2222C11.0407 11.4651 12.6548 9.94444 14.7569 9.94444C16.8591 9.94444 18.4732 11.4651 18.4732 13.2222C18.4732 14.9793 16.8591 16.5 14.7569 16.5C12.6548 16.5 11.0407 14.9793 11.0407 13.2222ZM12.1488 13.2222C12.1488 14.5903 13.3712 15.6111 14.7569 15.6111C16.1427 15.6111 17.3651 14.5903 17.3651 13.2222C17.3651 11.8541 16.1427 10.8333 14.7569 10.8333C13.3712 10.8333 12.1488 11.8541 12.1488 13.2222Z" fill="#088A06" stroke="#088A06"/>
</svg>
