<svg width="16" height="22" viewBox="0 0 16 22" fill="none" xmlns="http://www.w3.org/2000/svg">
<path d="M15.1427 19.4152V3.59473H0.857296V19.4152C0.382926 19.4152 0 19.8663 0 20.425C0 20.9838 0.382926 21.4348 0.857296 21.4348H15.1427C15.6171 21.4348 16 20.9838 16 20.425C16 19.8663 15.6171 19.4152 15.1427 19.4152Z" fill="#965353"/>
<path d="M15.1427 3.59464H0.857297C0.542955 3.59464 0.285767 3.29169 0.285767 2.92143V1.575V1.2384C0.285767 0.868131 0.542955 0.565186 0.857297 0.565186H15.1427C15.457 0.565186 15.7142 0.868131 15.7142 1.2384V2.58482V2.92143C15.7142 3.29169 15.457 3.59464 15.1427 3.59464Z" fill="#E6E9ED"/>
<path d="M4.85662 1.23853H0.285522V1.91174H4.85662C5.01465 1.91174 5.14239 1.76127 5.14239 1.57513C5.14239 1.38899 5.01465 1.23853 4.85662 1.23853Z" fill="#CCD1D9"/>
<path d="M11.4292 2.24829C11.2712 2.24829 11.1434 2.39875 11.1434 2.5849C11.1434 2.77104 11.2712 2.9215 11.4292 2.9215H15.7145V2.24829H11.4292Z" fill="#CCD1D9"/>
<path d="M1.71313 18.7417H0.856689V19.4149H1.71313C1.87116 19.4149 1.99889 19.2644 1.99889 19.0783C1.99889 18.8922 1.87116 18.7417 1.71313 18.7417Z" fill="#844747"/>
<path d="M14.2867 18.7417C14.1287 18.7417 14.001 18.8922 14.001 19.0783C14.001 19.2644 14.1287 19.4149 14.2867 19.4149H15.1432V18.7417H14.2867Z" fill="#844747"/>
<path d="M11.4304 18.4061H4.5697C4.41167 18.4061 4.28394 18.2557 4.28394 18.0695C4.28394 17.8834 4.41167 17.7329 4.5697 17.7329H11.4304C11.5884 17.7329 11.7161 17.8834 11.7161 18.0695C11.7161 18.2557 11.5884 18.4061 11.4304 18.4061Z" fill="#844747"/>
<path d="M9.42935 19.4159H6.57056C6.41253 19.4159 6.28479 19.2654 6.28479 19.0793C6.28479 18.8931 6.41253 18.7427 6.57056 18.7427H9.42935C9.58738 18.7427 9.71512 18.8931 9.71512 19.0793C9.71512 19.2654 9.58738 19.4159 9.42935 19.4159Z" fill="#844747"/>
<path d="M11.4304 17.3951H4.5697C4.41167 17.3951 4.28394 17.2447 4.28394 17.0585C4.28394 16.8724 4.41167 16.7219 4.5697 16.7219H11.4304C11.5884 16.7219 11.7161 16.8724 11.7161 17.0585C11.7161 17.2447 11.5884 17.3951 11.4304 17.3951Z" fill="#844747"/>
<path d="M7.99852 15.0394C10.0502 15.0394 11.7135 13.0802 11.7135 10.6635C11.7135 8.24674 10.0502 6.2876 7.99852 6.2876C5.94681 6.2876 4.28357 8.24674 4.28357 10.6635C4.28357 13.0802 5.94681 15.0394 7.99852 15.0394Z" fill="#ED5565"/>
<path d="M7.42699 10.3267V10.3301C7.42413 10.8888 7.04121 11.3365 6.5697 11.3365C6.09533 11.3365 5.14087 10.8855 5.14087 10.3267C5.14087 9.76795 6.09533 9.31689 6.5697 9.31689C7.04149 9.31689 7.42699 9.76795 7.42699 10.3267Z" fill="#A0D468"/>
<path d="M6.56884 11.6726C5.97988 11.6726 4.85425 11.1485 4.85425 10.3262C4.85425 9.5045 5.97988 8.97974 6.56884 8.97974C7.19924 8.97974 7.7119 9.58394 7.7119 10.3262C7.7119 11.069 7.19924 11.6726 6.56884 11.6726ZM6.56884 9.65295C6.14162 9.65295 5.42578 10.0747 5.42578 10.3262C5.42578 10.5779 6.14162 10.9994 6.56884 10.9994C6.88404 10.9994 7.14037 10.6978 7.14037 10.3262C7.14037 9.95522 6.88404 9.65295 6.56884 9.65295Z" fill="#A0D468"/>
<path d="M7.99742 11.336C7.8394 11.336 7.71166 11.1855 7.71166 10.9994C7.71166 10.8152 7.58478 10.6661 7.42847 10.6661C7.27044 10.6661 7.1427 10.5153 7.1427 10.3295C7.1427 10.1434 7.27044 9.99292 7.42847 9.99292C7.89969 9.99292 8.28319 10.4443 8.28319 10.9994C8.28319 11.1855 8.15545 11.336 7.99742 11.336Z" fill="#8CC152"/>
<path d="M7.99744 10.6626C7.83941 10.6626 7.71167 10.8131 7.71167 10.9992V15.0216C7.80654 15.0301 7.9017 15.0388 7.99858 15.0388C8.0946 15.0388 8.1889 15.0304 8.2832 15.0216V10.9992C8.2832 10.8131 8.15546 10.6626 7.99744 10.6626Z" fill="#8CC152"/>
<path d="M8.00061 12.0095C7.84258 12.0095 7.71484 11.859 7.71484 11.6729C7.71484 11.1165 8.0992 10.6641 8.57157 10.6641C8.7296 10.6641 8.85733 10.8145 8.85733 11.0007C8.85733 11.1868 8.7296 11.3369 8.57157 11.3369C8.41411 11.3369 8.28637 11.4874 8.28637 11.6729C8.28637 11.859 8.15864 12.0095 8.00061 12.0095Z" fill="#A0D468"/>
<path d="M9.42736 9.99023C9.90173 9.99023 10.8562 10.4413 10.8562 11.0001C10.8562 11.5585 9.90173 12.0095 9.42736 12.0095C8.95585 12.0095 8.57007 11.5585 8.57007 11.0001C8.57007 10.4413 8.95585 9.99023 9.42736 9.99023Z" fill="#8CC152"/>
<path d="M9.42907 12.3464C8.79867 12.3464 8.28601 11.7422 8.28601 11C8.28601 10.2574 8.79867 9.65356 9.42907 9.65356C10.018 9.65356 11.1437 10.1777 11.1437 11C11.1437 11.8216 10.018 12.3464 9.42907 12.3464ZM9.42907 10.3268C9.11387 10.3268 8.85754 10.6284 8.85754 11C8.85754 11.3713 9.11387 11.6732 9.42907 11.6732C9.85629 11.6732 10.5721 11.2518 10.5721 11C10.5721 10.7482 9.85629 10.3268 9.42907 10.3268Z" fill="#8CC152"/>
</svg>
