<svg width="20" height="20" viewBox="0 0 20 20" fill="none" xmlns="http://www.w3.org/2000/svg">
<path d="M16.3157 7.05249V11.263H14.2105V7.05249H16.3157ZM3.6842 11.263H5.78947V7.05249H3.6842V11.263Z" fill="#A0A0A0"/>
<path d="M16.3157 7.05249V11.263H15.4736V7.05249H16.3157ZM4.94739 11.263H5.78949V7.05249H4.94739V11.263Z" fill="#7C7C7C"/>
<path d="M17.1178 18.8037C17.1396 19.2832 16.7567 19.684 16.2766 19.684H14.2496C13.7696 19.684 13.3866 19.2833 13.4084 18.8037L13.7529 11.2248C13.7734 10.775 14.1439 10.4209 14.5941 10.4209H15.9321C16.3823 10.4209 16.7529 10.775 16.7733 11.2248L17.1178 18.8037ZM5.40581 10.4209H4.06785C3.61762 10.4209 3.24707 10.775 3.22664 11.2248L2.88211 18.8037C2.86032 19.2832 3.24324 19.684 3.72332 19.684H5.75026C6.23034 19.684 6.61331 19.2833 6.59147 18.8037L6.24698 11.2248C6.22655 10.775 5.85601 10.4209 5.40581 10.4209Z" fill="#FF9F50"/>
<path d="M15.8155 18.8037C15.8373 19.2832 15.4544 19.684 14.9743 19.684H14.2496C13.7695 19.684 13.3866 19.2833 13.4084 18.8037L13.7529 11.2248C13.7734 10.775 14.1439 10.4209 14.5941 10.4209H14.6298C15.08 10.4209 15.4505 10.775 15.471 11.2248L15.8155 18.8037ZM4.10351 10.4209H4.06785C3.61762 10.4209 3.24707 10.775 3.22664 11.2248L2.88211 18.8037C2.86032 19.2832 3.24324 19.684 3.72332 19.684H4.448C4.92808 19.684 5.31105 19.2833 5.28921 18.8037L4.94472 11.2248C4.92429 10.775 4.55371 10.4209 4.10351 10.4209Z" fill="#FFB36E"/>
<path d="M9.15787 5.51146V6.2104C9.15787 7.14056 8.40381 7.89462 7.47366 7.89462H2.00001C1.06986 7.89462 0.315796 7.14056 0.315796 6.2104V5.51146C0.315796 2.89139 2.23044 0.718825 4.73683 0.315701C7.24323 0.718786 9.15787 2.89136 9.15787 5.51146ZM18.9602 0.317068C18.6381 0.33742 18.3786 0.590935 18.3296 0.909918L17.7431 4.7217C17.6859 5.09369 17.3658 5.36826 16.9895 5.36826C16.591 5.36826 16.2598 5.06146 16.2292 4.66424L15.9429 0.943394C15.9157 0.589216 15.6203 0.315701 15.2651 0.315701H15.2611C14.9058 0.315701 14.6105 0.589216 14.5832 0.943433L14.297 4.66428C14.2664 5.06154 13.9352 5.3683 13.5367 5.3683C13.1604 5.3683 12.8403 5.09369 12.7831 4.72174L12.1966 0.909957C12.1475 0.590974 11.8881 0.33742 11.566 0.317107C11.1705 0.292147 10.842 0.605544 10.842 0.995581V5.3683V5.78935V6.2104C10.842 7.14056 11.5961 7.89462 12.5263 7.89462H17.9999C18.9301 7.89462 19.6841 7.14056 19.6841 6.2104V5.78935V5.3683V0.995542C19.6842 0.605466 19.3556 0.292108 18.9602 0.317068Z" fill="#C1C1C1"/>
<path d="M19.6842 0.995577V5.36833V5.78939V6.21044C19.6842 7.14059 18.9301 7.89465 18 7.89465H16.3158C17.2459 7.89465 18 7.14059 18 6.21044V5.78939V5.36833V3.05248L18.3296 0.909913C18.3787 0.59093 18.6382 0.337377 18.9603 0.317064C19.3557 0.292142 19.6842 0.605501 19.6842 0.995577ZM4.73688 0.315697C4.44759 0.36222 4.16626 0.432611 3.89478 0.524251C5.97543 1.22659 7.47371 3.19381 7.47371 5.51142V6.21036C7.47371 7.14051 6.71965 7.89457 5.78949 7.89457H7.47371C8.40386 7.89457 9.15792 7.14051 9.15792 6.21036V5.78931V5.51142C9.15792 2.89139 7.24328 0.71882 4.73688 0.315697Z" fill="#A0A0A0"/>
<path d="M19.6857 0.269728C19.4831 0.079573 19.2185 -0.0152704 18.9403 0.00207331C18.4777 0.0312529 18.0896 0.392931 18.0175 0.86207L17.431 4.67385C17.3973 4.89334 17.2115 5.05268 16.9895 5.05268C16.7575 5.05268 16.5618 4.87151 16.544 4.64022L16.2578 0.919452C16.2182 0.403947 15.7821 0.000120195 15.2611 0.000120195C14.744 0.000120195 14.308 0.403947 14.2684 0.919413L13.9821 4.64026C13.9643 4.87155 13.7687 5.05272 13.5367 5.05272C13.3146 5.05272 13.1289 4.89338 13.0951 4.67389L12.5087 0.862148C12.4365 0.392931 12.0484 0.0312529 11.5859 0.00207331C11.3076 -0.0155438 11.043 0.079573 10.8405 0.269728C10.6408 0.457267 10.5262 0.721836 10.5262 0.995702V6.21053C10.5262 7.31329 11.4235 8.21052 12.5262 8.21052H13.8947V10.3395C13.6296 10.5402 13.4537 10.853 13.4374 11.2106L13.3974 12.0909C13.3895 12.2651 13.5243 12.4128 13.6985 12.4207C13.8736 12.4288 14.0205 12.2938 14.0283 12.1196L14.0683 11.2393C14.0812 10.9575 14.3121 10.7368 14.5941 10.7368H15.932C16.214 10.7368 16.445 10.9575 16.4578 11.2392L16.8023 18.8181C16.8089 18.963 16.7573 19.1007 16.657 19.2056C16.5568 19.3105 16.4217 19.3683 16.2765 19.3683H14.2496C14.1045 19.3683 13.9694 19.3105 13.8691 19.2056C13.7689 19.1007 13.7173 18.9631 13.7238 18.8181L13.9709 13.3827C13.9788 13.2085 13.844 13.0608 13.6698 13.0529C13.4961 13.0448 13.3479 13.1798 13.34 13.354L13.0929 18.7894C13.0784 19.1083 13.1919 19.4111 13.4125 19.6419C13.633 19.8727 13.9303 19.9998 14.2496 19.9998H16.2766C16.5959 19.9998 16.8932 19.8727 17.1138 19.6419C17.3343 19.4111 17.4479 19.1083 17.4333 18.7893L17.0888 11.2104C17.0726 10.8529 16.8967 10.5401 16.6316 10.3394V8.21044H18C19.1028 8.21044 20 7.31322 20 6.21045V0.995663C19.9999 0.721836 19.8854 0.457228 19.6857 0.269728ZM19.3684 6.21053C19.3684 6.96505 18.7545 7.57896 17.9999 7.57896H15.8947C15.7202 7.57896 15.5789 7.72036 15.5789 7.89474C15.5789 8.06915 15.7202 8.21052 15.8947 8.21052H15.9999V10.1072C15.9775 10.1059 15.9549 10.1052 15.9321 10.1052H14.5942C14.5714 10.1052 14.5488 10.1059 14.5264 10.1072V8.21052H14.6316C14.8061 8.21052 14.9474 8.06911 14.9474 7.89474C14.9474 7.72032 14.8061 7.57896 14.6316 7.57896H12.5264C11.7718 7.57896 11.1579 6.96505 11.1579 6.21053V0.995702C11.1579 0.894101 11.1988 0.799805 11.2729 0.730195C11.3469 0.660703 11.4438 0.625977 11.5462 0.632422C11.7149 0.643047 11.8572 0.78 11.8846 0.958163L12.471 4.76994C12.5526 5.29975 13.0008 5.68432 13.5368 5.68432C14.0968 5.68432 14.569 5.24697 14.6119 4.68869L14.8982 0.967851C14.9127 0.779336 15.0722 0.631719 15.2652 0.631719C15.4542 0.631719 15.6137 0.779375 15.6282 0.96789L15.9145 4.68873C15.9574 5.24701 16.4296 5.68436 16.9896 5.68436C17.5256 5.68436 17.9739 5.29983 18.0554 4.76998L18.6418 0.958202C18.6692 0.780117 18.8115 0.643125 18.9802 0.632461C19.0828 0.626329 19.1795 0.660743 19.2535 0.730274C19.3277 0.799883 19.3685 0.894179 19.3685 0.99578V6.21053H19.3684ZM4.77658 1.86597C4.85061 2.02386 4.7826 2.21191 4.62471 2.28593C3.24374 2.93335 2.35144 4.33663 2.35144 5.86092V6.42693C2.35144 6.60134 2.21011 6.74271 2.03566 6.74271C1.8612 6.74271 1.71988 6.6013 1.71988 6.42693V5.86092C1.71988 4.09276 2.75487 2.46503 4.35662 1.71406C4.51451 1.64004 4.70256 1.70804 4.77658 1.86597ZM15.4736 18.3157C15.2992 18.3157 15.1578 18.1743 15.1578 17.9999V11.6841C15.1578 11.5097 15.2992 11.3684 15.4736 11.3684C15.6481 11.3684 15.7894 11.5098 15.7894 11.6841V17.9999C15.7894 18.1743 15.6481 18.3157 15.4736 18.3157ZM4.94736 18.3157C4.77291 18.3157 4.63158 18.1743 4.63158 17.9999V11.6841C4.63158 11.5097 4.77291 11.3684 4.94736 11.3684C5.12182 11.3684 5.26314 11.5098 5.26314 11.6841V17.9999C5.26314 18.1743 5.12178 18.3157 4.94736 18.3157ZM4.78697 0.00406549C4.75377 -0.00128605 4.71986 -0.00128605 4.68662 0.00406549C3.39225 0.212229 2.20612 0.877187 1.34695 1.87644C0.478357 2.88659 0 4.1776 0 5.51158V6.21053C0 7.31329 0.897223 8.21052 1.99999 8.21052H3.36842V10.3395C3.10335 10.5402 2.92741 10.853 2.91116 11.2106L2.87116 12.0909C2.86323 12.2651 2.99807 12.4128 3.17225 12.4207C3.346 12.4288 3.49417 12.2938 3.50206 12.1196L3.54206 11.2393C3.55491 10.9575 3.78584 10.7368 4.06784 10.7368H5.4058C5.68779 10.7368 5.91877 10.9575 5.93158 11.2392L6.27607 18.8181C6.28263 18.963 6.23107 19.1007 6.1308 19.2056C6.03056 19.3105 5.89537 19.3683 5.75029 19.3683H3.72334C3.57827 19.3683 3.44311 19.3105 3.34284 19.2056C3.2426 19.1007 3.191 18.9631 3.19757 18.8181L3.44463 13.3826C3.45256 13.2084 3.31772 13.0607 3.14354 13.0528C2.96999 13.0447 2.82163 13.1798 2.81374 13.354L2.56667 18.7893C2.55214 19.1083 2.66569 19.4111 2.88624 19.6418C3.10675 19.8727 3.40405 19.9998 3.72334 19.9998H5.75033C6.06962 19.9998 6.36693 19.8727 6.58747 19.6419C6.80802 19.4111 6.92157 19.1083 6.90704 18.7894L6.56255 11.2105C6.54626 10.853 6.37037 10.5402 6.10529 10.3394V8.21048H7.47372C8.57649 8.21048 9.47371 7.31325 9.47371 6.21049V5.51154C9.47371 4.17756 8.99536 2.88659 8.12677 1.8764C7.26751 0.877187 6.08142 0.212229 4.78697 0.00406549ZM8.84207 6.21053C8.84207 6.96505 8.22821 7.57896 7.47364 7.57896H5.36838C5.19392 7.57896 5.0526 7.72036 5.0526 7.89474C5.0526 8.06915 5.19392 8.21052 5.36838 8.21052H5.47365V10.1072C5.45119 10.1059 5.42857 10.1052 5.40584 10.1052H4.06784C4.0451 10.1052 4.02245 10.1059 4.00002 10.1072V8.21052H4.1053C4.27975 8.21052 4.42108 8.06911 4.42108 7.89474C4.42108 7.72032 4.27975 7.57896 4.1053 7.57896H1.99999C1.24542 7.57896 0.63156 6.96505 0.63156 6.21053V5.51158C0.63156 3.08585 2.35499 1.04348 4.73682 0.635938C7.11868 1.04348 8.84207 3.08585 8.84207 5.51158V6.21053Z" fill="black"/>
</svg>
