<svg width="20" height="20" viewBox="0 0 20 20" fill="none" xmlns="http://www.w3.org/2000/svg">
<path d="M19.3556 8.17752L10.7889 0.29586C10.6857 0.202112 10.5628 0.127702 10.4274 0.0769231C10.292 0.0261437 10.1467 0 10.0001 0C9.85338 0 9.70816 0.0261437 9.57276 0.0769231C9.43736 0.127702 9.31447 0.202112 9.21118 0.29586L0.644568 8.18752C0.437277 8.37563 0.273565 8.59893 0.162936 8.84446C0.0523072 9.09 -0.00303307 9.35287 0.000128182 9.61782V17.9996C-0.000732728 18.5116 0.216541 19.0044 0.607207 19.3766C0.997873 19.7487 1.53219 19.9718 2.10011 20H17.9C18.4679 19.9718 19.0022 19.7487 19.3929 19.3766C19.7836 19.0044 20.0009 18.5116 20 17.9996V9.61782C20.0009 9.08064 19.7698 8.56418 19.3556 8.17752ZM7.77785 17.9996V11.9983H12.2223V17.9996H7.77785ZM17.7778 17.9996H14.4445V10.9981C14.4445 10.7328 14.3274 10.4784 14.119 10.2909C13.9107 10.1033 13.6281 9.9979 13.3334 9.9979H6.66675C6.37207 9.9979 6.08945 10.1033 5.88108 10.2909C5.67271 10.4784 5.55565 10.7328 5.55565 10.9981V17.9996H2.22234V9.57781L10.0001 2.42631L17.7778 9.61782V17.9996Z" fill="#088A06"/>
</svg>
