<svg width="20" height="20" viewBox="0 0 20 20" fill="none" xmlns="http://www.w3.org/2000/svg">
<path d="M10 20C15.5228 20 20 15.5228 20 10C20 4.47715 15.5228 0 10 0C4.47715 0 0 4.47715 0 10C0 15.5228 4.47715 20 10 20Z" fill="#EEC82F"/>
<path d="M18.1406 4.57422C18.1406 5.13672 18.082 5.68359 17.9727 6.21484C17.6484 7.78906 16.8633 9.19531 15.7656 10.2852C15.6797 10.3711 15.5898 10.4531 15.5 10.5352C15.293 10.7266 15.0742 10.9062 14.8438 11.0742C14.7539 11.1406 14.6641 11.2031 14.5703 11.2656C14.3633 11.4062 14.1523 11.5352 13.9297 11.6523C13.4609 11.9062 12.9648 12.1172 12.4453 12.2773C12.1562 12.3672 11.8594 12.4414 11.5547 12.4961C11.3594 12.5312 11.1641 12.5625 10.9648 12.582C10.6719 12.6133 10.3711 12.6328 10.0703 12.6328C9.76953 12.6328 9.46875 12.6172 9.17578 12.582C8.97656 12.5586 8.78125 12.5312 8.58594 12.4961C8.44531 12.4687 8.30469 12.4414 8.16406 12.4062C7.75391 12.3086 7.35938 12.1758 6.97656 12.0156C6.71484 11.9062 6.46094 11.7852 6.21484 11.6523C5.99609 11.5312 5.78125 11.4023 5.57813 11.2656C5.48828 11.2031 5.39453 11.1406 5.30859 11.0742C5.07812 10.9062 4.85938 10.7266 4.65234 10.5352C4.5625 10.4531 4.47656 10.3711 4.39062 10.2852C3.29297 9.19141 2.50781 7.78516 2.18359 6.21094C2.07422 5.67969 2.01562 5.13281 2.01562 4.57031C2.01562 4.35937 2.02344 4.14844 2.03906 3.94141C3.86719 1.54688 6.75391 0 10 0C13.3516 0 16.3164 1.64844 18.1289 4.17578C18.1367 4.30859 18.1406 4.4375 18.1406 4.57422Z" fill="#F4D576"/>
<path d="M6.07025 6.32024C6.4765 6.98821 7.05072 7.46087 7.64447 7.67962C8.18353 7.87884 8.73431 7.86321 9.18353 7.58977C10.1249 7.01556 10.2617 5.51556 9.48431 4.24212C8.89447 3.26946 7.164 2.65618 6.37103 2.4179C6.15228 2.35149 5.92572 2.49212 5.88275 2.71477C5.7265 3.52727 5.4804 5.34759 6.07025 6.32024Z" fill="#76A055"/>
<path d="M7.64453 7.67969C8.18359 7.87891 8.73438 7.86328 9.18359 7.58984C10.125 7.01562 10.2617 5.51562 9.48438 4.24219C8.89453 3.26953 7.16406 2.65625 6.37109 2.41797C6.4375 2.47266 10.6406 5.69922 7.64453 7.67969Z" fill="#628347"/>
<path d="M8.83984 6.97266C8.83984 6.97266 10.0742 8.61328 9.87109 10.418" stroke="#54743C" stroke-width="0.3125" stroke-miterlimit="10" stroke-linecap="round"/>
<path d="M14.5 11.5273C14.5 11.8828 15.0156 12.293 14.8672 12.6133C14.7109 12.9453 13.9453 13.0664 13.6562 13.3438C13.3633 13.625 13.4375 14.168 13.0351 14.3711C12.6601 14.5625 12 14.3789 11.5273 14.4492C11.5 14.4531 11.4726 14.457 11.4453 14.4648C11.4336 14.4687 11.418 14.4727 11.4062 14.4727C10.9609 14.5938 10.5742 15.0391 10.0781 15.0391C9.56639 15.0391 9.17186 14.5664 8.71092 14.4609C8.23436 14.3516 7.51561 14.5703 7.11717 14.3672C6.71483 14.1641 6.78905 13.6172 6.49608 13.3398C6.20702 13.0625 5.44139 12.9453 5.28514 12.6094C5.1367 12.2891 5.65233 11.8789 5.65233 11.5234C5.65233 11.168 5.1367 10.7578 5.28514 10.4375C5.44139 10.1055 6.20702 9.98438 6.49608 9.70703C6.78905 9.42578 6.71483 8.88281 7.11717 8.67969C7.51561 8.47656 8.23436 8.69531 8.71092 8.58594C9.17186 8.48047 9.5703 8.00781 10.0781 8.00781C10.5742 8.00781 10.9609 8.45312 11.4062 8.57422C11.418 8.57812 11.4297 8.58203 11.4453 8.58594C11.4726 8.59375 11.5 8.59766 11.5273 8.60156C12 8.67187 12.6601 8.48828 13.0351 8.67969C13.4375 8.88281 13.3633 9.42969 13.6562 9.70703C13.9453 9.98438 14.7109 10.1016 14.8672 10.4375C15.0195 10.7617 14.5 11.1719 14.5 11.5273Z" fill="#95402B"/>
<path d="M14.5 11.5273C14.5 11.8828 15.0156 12.2929 14.8672 12.6133C14.7109 12.9453 13.9453 13.0664 13.6562 13.3437C13.3633 13.625 13.4375 14.1679 13.0351 14.3711C12.6601 14.5625 12 14.3789 11.5273 14.4492C11.0547 14.3789 10.3945 14.5586 10.0195 14.3711C9.61717 14.1679 9.69139 13.6211 9.39842 13.3437C9.10936 13.0664 8.34374 12.9492 8.18749 12.6133C8.03905 12.2929 8.55467 11.8828 8.55467 11.5273C8.55467 11.1718 8.03905 10.7617 8.18749 10.4414C8.34374 10.1093 9.10936 9.98825 9.39842 9.71091C9.69139 9.42966 9.61717 8.88669 10.0195 8.68357C10.3945 8.49216 11.0547 8.67575 11.5273 8.60544C12 8.67575 12.6601 8.49216 13.0351 8.68357C13.4375 8.88669 13.3633 9.43357 13.6562 9.71091C13.9453 9.98825 14.7109 10.1054 14.8672 10.4414C15.0195 10.7617 14.5 11.1718 14.5 11.5273Z" fill="#A64B2D"/>
<path d="M13.4922 4.64453C13.4922 5.51562 13.2188 6.30469 12.7813 6.85547C12.3828 7.35547 11.8477 7.66406 11.2617 7.66406C10.0312 7.66406 9.03125 6.3125 9.03125 4.64453C9.03125 3.375 10.3242 1.78516 10.9414 1.09766C11.1133 0.90625 11.4102 0.90625 11.582 1.09766C12.1992 1.78516 13.4922 3.375 13.4922 4.64453Z" fill="#7EB058"/>
<path d="M12.7813 6.85547C12.3828 7.35547 11.8477 7.66406 11.2617 7.66406C10.0312 7.66406 9.03125 6.3125 9.03125 4.64453C9.03125 3.375 10.3242 1.78516 10.9414 1.09766C10.9063 1.1875 8.77344 6.70703 12.7813 6.85547Z" fill="#6D974D"/>
<path d="M10.1367 10.8047C11.6289 9.45312 11.2031 3.10938 11.2031 3.10938" stroke="#54743C" stroke-width="0.3125" stroke-miterlimit="10" stroke-linecap="round"/>
<path d="M12.2212 2.919C12.4329 2.80703 12.4606 2.44415 12.283 2.1085C12.1055 1.77285 11.7899 1.59153 11.5782 1.7035C11.3666 1.81548 11.3389 2.17835 11.5164 2.514C11.694 2.84965 12.0095 3.03098 12.2212 2.919Z" fill="#99CD75"/>
<path d="M12.6567 3.66684C12.7635 3.61035 12.7781 3.4285 12.6893 3.26068C12.6006 3.09285 12.442 3.0026 12.3352 3.05909C12.2284 3.11558 12.2138 3.29743 12.3026 3.46525C12.3914 3.63308 12.5499 3.72333 12.6567 3.66684Z" fill="#99CD75"/>
<path d="M10.2383 6.11719L11.1992 7.01953" stroke="#54743C" stroke-width="0.3125" stroke-miterlimit="10" stroke-linecap="round"/>
<path d="M11.2617 5.26563L12.0078 4.57031" stroke="#54743C" stroke-width="0.3125" stroke-miterlimit="10" stroke-linecap="round"/>
<path d="M11.1992 3.99219L10.625 3.52734" stroke="#54743C" stroke-width="0.3125" stroke-miterlimit="10" stroke-linecap="round"/>
<path d="M12.4375 12.168C12.4375 12.4648 12.7539 12.8047 12.664 13.0742C12.5703 13.3516 12.0976 13.4492 11.9219 13.6836C11.7422 13.918 11.789 14.3711 11.5429 14.543C11.3125 14.7031 10.9062 14.5508 10.6172 14.6094C10.6015 14.6133 10.582 14.6172 10.5664 14.6211C10.5586 14.625 10.5508 14.625 10.5429 14.6289C10.2695 14.7305 10.0312 15.1016 9.72654 15.1016C9.41404 15.1016 9.16794 14.707 8.88669 14.6211C8.59373 14.5312 8.15232 14.7109 7.91013 14.543C7.66404 14.375 7.71091 13.918 7.53123 13.6836C7.35545 13.4531 6.88279 13.3555 6.78904 13.0742C6.69529 12.8047 7.0156 12.4648 7.0156 12.168C7.0156 11.8711 6.6992 11.5312 6.78904 11.2617C6.88279 10.9844 7.35545 10.8867 7.53123 10.6523C7.71091 10.418 7.66404 9.96484 7.91013 9.79688C8.15232 9.62891 8.59373 9.80859 8.88669 9.71875C9.16794 9.63281 9.41404 9.23828 9.72654 9.23828C10.0312 9.23828 10.2695 9.60938 10.5429 9.71094C10.5508 9.71484 10.5586 9.71484 10.5664 9.71875C10.582 9.72266 10.6015 9.72656 10.6172 9.73047C10.9062 9.78906 11.3125 9.63672 11.5429 9.79688C11.789 9.96484 11.7422 10.4219 11.9219 10.6523C12.0976 10.8828 12.5703 10.9805 12.664 11.2617C12.7539 11.5312 12.4375 11.8711 12.4375 12.168Z" fill="#95402B"/>
<path d="M6.99216 15.0702C6.25388 14.1249 4.66404 13.3671 4.66404 13.3671C3.48826 13.0468 3.0156 12.0663 3.0156 12.0663L1.44529 6.61319C1.36716 6.33975 1.42185 6.04287 1.60154 5.82803C1.28122 5.73037 1.05857 5.84365 0.906224 6.00381C0.703099 6.22256 0.640599 6.53506 0.722631 6.82022L2.29294 12.2733C2.29294 12.2733 2.76169 13.2499 3.93747 13.5741C3.93747 13.5741 6.44919 14.7733 6.62497 16.0351V17.0312H9.98044V15.0702H6.99216Z" fill="#CA8F80"/>
<path d="M9.98829 15.0703C9.98829 15.0703 9.74611 13.625 8.96095 12.2969C8.62111 11.7266 8.15626 11.2422 7.59767 10.8828C7.50782 10.8242 7.41798 10.7734 7.32814 10.7227L5.28907 9.39453C5.14454 9.31641 4.98439 9.26953 4.81642 9.26172C4.79689 9.26172 4.78126 9.26172 4.76173 9.26172C4.74611 9.26172 4.73048 9.26172 4.71876 9.26172C4.48048 9.26953 4.18751 9.32422 4.03907 9.53906L2.19532 6.27344C2.12111 6.14453 2.01564 6.03125 1.88673 5.95312C1.78517 5.89062 1.69142 5.85156 1.60548 5.82422C1.42579 6.03906 1.3672 6.33594 1.44923 6.60937L3.01954 12.0625C3.01954 12.0625 3.48829 13.0391 4.66798 13.3633C4.66798 13.3633 7.1797 14.5586 7.35548 15.8242V16.668H9.1797V15.2969L9.98829 15.0703Z" fill="#E2A18B"/>
<path d="M4.03909 9.53906C4.03909 9.53906 3.5469 10.3242 4.92972 11.3125C4.92972 11.3125 6.42972 12.0977 6.48831 12.6641C6.48831 12.6641 6.64847 11.8516 5.18362 11.1172C5.18362 11.1172 3.99222 10.4062 4.03909 9.53906Z" fill="#CA8F80"/>
<path d="M9.85547 14.4844C9.71094 13.9414 9.43359 13.0977 8.96094 12.2969C8.62109 11.7266 8.15625 11.2422 7.59766 10.8828C8.16406 11.6797 9.08594 13.2734 9.17969 15.3008V16.6719H9.98828V15.5C9.98828 15.1602 9.94531 14.8203 9.85937 14.4922C9.85547 14.4922 9.85547 14.4883 9.85547 14.4844Z" fill="#D89988"/>
<path d="M5.09377 10.1171L5.03127 10.1914C4.9258 10.3203 4.7344 10.3359 4.60549 10.2304L4.30862 9.9726C4.26174 9.93354 4.25783 9.86323 4.2969 9.81635L4.60549 9.44917C4.64455 9.40229 4.71487 9.39839 4.76174 9.43354L5.05862 9.69136C5.18362 9.80073 5.19924 9.98823 5.09377 10.1171Z" fill="#CA8F80"/>
<path d="M12.9961 15.0702C13.7344 14.1249 15.3242 13.3671 15.3242 13.3671C16.5 13.0468 16.9727 12.0663 16.9727 12.0663L18.543 6.61319C18.6211 6.33975 18.5664 6.04287 18.3867 5.82803C18.707 5.73037 18.9297 5.84365 19.082 6.00381C19.2852 6.22256 19.3477 6.53506 19.2656 6.82022L17.6953 12.2733C17.6953 12.2733 17.2266 13.2499 16.0508 13.5741C16.0508 13.5741 13.5391 14.7733 13.3633 16.0351V17.0312H10V15.0702H12.9961Z" fill="#CA8F80"/>
<path d="M10 15.0703C10 15.0703 10.2422 13.625 11.0273 12.2969C11.3672 11.7266 11.832 11.2422 12.3906 10.8828C12.4805 10.8242 12.5703 10.7734 12.6602 10.7227L14.6992 9.39453C14.8438 9.31641 15.0039 9.26953 15.1719 9.26172H15.2266H15.2695C15.5078 9.26953 15.8008 9.32422 15.9492 9.53906L17.793 6.27344C17.8672 6.14453 17.9727 6.03125 18.1016 5.95312C18.2031 5.89062 18.2969 5.85156 18.3828 5.82422C18.5625 6.03906 18.6211 6.33594 18.5391 6.60937L16.9688 12.0625C16.9688 12.0625 16.5 13.0391 15.3203 13.3633C15.3203 13.3633 12.8086 14.5586 12.6328 15.8242V16.668H10.8047V15.2969L10 15.0703Z" fill="#E2A18B"/>
<path d="M15.9492 9.53906C15.9492 9.53906 16.4414 10.3242 15.0586 11.3125C15.0586 11.3125 13.5586 12.0977 13.5 12.6641C13.5 12.6641 13.3399 11.8516 14.8047 11.1172C14.8047 11.1172 15.9961 10.4062 15.9492 9.53906Z" fill="#CA8F80"/>
<path d="M10.1328 14.4844C10.2773 13.9414 10.5547 13.0977 11.0273 12.2969C11.3672 11.7266 11.832 11.2422 12.3906 10.8828C11.8242 11.6797 10.9023 13.2734 10.8086 15.3008V16.6719H10V15.5C10 15.1602 10.043 14.8203 10.1289 14.4922C10.1328 14.4922 10.1328 14.4883 10.1328 14.4844Z" fill="#D89988"/>
<path d="M14.8945 10.1171L14.957 10.1914C15.0625 10.3203 15.2539 10.3359 15.3828 10.2304L15.6797 9.9726C15.7265 9.93354 15.7304 9.86323 15.6914 9.81635L15.3828 9.44917C15.3437 9.40229 15.2734 9.39839 15.2265 9.43354L14.9297 9.69136C14.8047 9.80073 14.7851 9.98823 14.8945 10.1171Z" fill="#CA8F80"/>
<path d="M13.9766 17.3711V17.4492C13.9766 17.6484 13.8164 17.8086 13.6172 17.8086H6.53906C6.33984 17.8086 6.17969 17.6484 6.17969 17.4492V17.3711C6.17969 17.1719 6.33984 17.0117 6.53906 17.0117H13.6172C13.8164 17.0117 13.9766 17.1758 13.9766 17.3711Z" fill="#4F7B9F"/>
<path d="M13.6875 17.8086V19.2969C12.5469 19.75 11.3008 20 10 20C9.74609 20 9.49609 19.9922 9.24609 19.9727C8.31641 19.9023 7.41797 19.707 6.57812 19.3984V17.8086H13.6875Z" fill="#466D86"/>
<path d="M13.9766 17.3711V17.4492C13.9766 17.6484 13.8164 17.8086 13.6172 17.8086H9.20703C9.00781 17.8086 8.84766 17.6484 8.84766 17.4492V17.3711C8.84766 17.1719 9.00781 17.0117 9.20703 17.0117H13.6172C13.8164 17.0117 13.9766 17.1758 13.9766 17.3711Z" fill="#5686C5"/>
<path d="M13.6875 17.8086V19.2969C12.5469 19.75 11.3008 20 10 20C9.74609 20 9.49609 19.9922 9.24609 19.9727V17.8086H13.6875Z" fill="#4D789C"/>
</svg>
