<svg width="20" height="18" viewBox="0 0 20 18" fill="none" xmlns="http://www.w3.org/2000/svg">
<path d="M0.370361 2.92627H9.05803L13.4548 7.2701V17.6297H0.370361V2.92627Z" fill="#FE8E46"/>
<path d="M9.05803 2.92627H0.370361V4.62994H7.42843L11.8252 8.97378V17.6297H13.4548V7.2701L9.05803 2.92627Z" fill="#E56823"/>
<path d="M13.4548 18.0001H0.370364C0.164018 18.0001 0 17.836 0 17.6297V2.92627C0 2.71993 0.164018 2.55591 0.370364 2.55591H9.05803C9.15327 2.55591 9.24851 2.59294 9.31729 2.66173L13.7087 7.00556C13.7775 7.07434 13.8198 7.16958 13.8198 7.27011V17.6297C13.8251 17.836 13.6558 18.0001 13.4548 18.0001ZM0.740727 17.2593H13.0844V7.42354L8.90989 3.29663H0.740727V17.2593Z" fill="#463218"/>
<path d="M1.73009 10.2964C2.70362 9.80959 3.90465 9.84133 4.87818 10.4868C5.85171 11.1323 6.35434 12.2222 6.28556 13.3069C5.31203 13.7936 4.111 13.7619 3.13747 13.1164C2.16923 12.4762 1.6666 11.3863 1.73009 10.2964Z" fill="#7DAC51"/>
<path d="M6.28558 13.3069C5.31205 13.7937 4.11102 13.7619 3.13749 13.1164C2.16396 12.4709 1.66133 11.381 1.73011 10.2964" fill="#5B7C31"/>
<path d="M12.0897 8.73044C10.8516 8.1114 9.32784 8.15373 8.08976 8.96853C6.85169 9.78333 6.21678 11.1695 6.30144 12.5558C7.53951 13.1748 9.06329 13.1325 10.3014 12.3177C11.5341 11.4976 12.1691 10.1114 12.0897 8.73044Z" fill="#7DAC51"/>
<path d="M12.0898 8.73028C12.0898 8.73028 9.32791 8.15357 8.08984 8.96837C6.85177 9.78317 6.30151 12.5503 6.30151 12.5503L12.0898 8.73028Z" fill="#5B7C31"/>
<path d="M8.08986 13.344C7.42321 13.344 6.75126 13.1905 6.13223 12.8837C6.01583 12.8255 5.93646 12.7038 5.92588 12.5715C5.83594 11.016 6.58195 9.51336 7.88352 8.65623C9.17979 7.79911 10.857 7.69858 12.2485 8.39169C12.3649 8.44989 12.4443 8.57158 12.4549 8.70385C12.5448 10.2594 11.7988 11.762 10.4972 12.6191C9.77766 13.1006 8.93641 13.344 8.08986 13.344ZM6.66661 12.3123C7.78299 12.7884 9.07926 12.6773 10.0951 12.0054C11.111 11.3334 11.7247 10.1853 11.7247 8.9684C10.6083 8.49222 9.31206 8.60332 8.29621 9.27527C7.28035 9.94721 6.66661 11.0953 6.66661 12.3123Z" fill="#463218"/>
<path d="M4.87821 14.0106C4.19568 14.0106 3.51844 13.8148 2.93644 13.4286C1.88884 12.7355 1.28568 11.5291 1.35975 10.2752C1.36504 10.1429 1.44441 10.0265 1.5661 9.96302C2.68777 9.40219 4.03695 9.48155 5.08455 10.1747C6.13215 10.8678 6.73531 12.0741 6.66124 13.328C6.65595 13.4603 6.57659 13.5767 6.4549 13.6402C5.95755 13.8889 5.41788 14.0106 4.87821 14.0106ZM2.09519 10.5397C2.11106 11.4498 2.57666 12.3069 3.34384 12.8095C4.11102 13.3122 5.07926 13.4074 5.92051 13.0635C5.90464 12.1535 5.43904 11.2963 4.67186 10.7937C3.90997 10.2911 2.94173 10.1958 2.09519 10.5397Z" fill="#463218"/>
<path d="M8.01038 11.4524L9.61862 10.3738L9.99584 10.9362L8.3876 12.0148L8.01038 11.4524Z" fill="white"/>
<path d="M10.1005 10.051L10.7112 9.64139L11.0885 10.2038L10.4777 10.6135L10.1005 10.051Z" fill="white"/>
<path d="M13.8064 2.13246C14.3106 1.62831 14.4463 0.946585 14.1095 0.609793C13.7727 0.273001 13.091 0.408676 12.5868 0.912831C12.0826 1.41699 11.947 2.09871 12.2838 2.4355C12.6206 2.77229 13.3023 2.63662 13.8064 2.13246Z" fill="#E56823"/>
<path d="M17.1436 4.24227C17.8289 4.04549 18.2779 3.51483 18.1464 3.05701C18.015 2.59919 17.3529 2.38758 16.6675 2.58436C15.9822 2.78115 15.5332 3.31181 15.6647 3.76963C15.7961 4.22745 16.4583 4.43906 17.1436 4.24227Z" fill="#E56823"/>
<path d="M12.7723 2.98978C12.4813 2.98978 12.2167 2.89454 12.0157 2.69349C11.5289 2.20672 11.6612 1.30727 12.3172 0.645907C12.9786 -0.0154564 13.8728 -0.147729 14.3648 0.344325C14.8516 0.831089 14.7193 1.73054 14.0632 2.39191C13.677 2.78343 13.2008 2.98978 12.7723 2.98978ZM13.6135 0.794052C13.3966 0.794052 13.1003 0.921034 12.8463 1.175C12.476 1.54536 12.3807 2.01096 12.5448 2.17498C12.7088 2.339 13.1744 2.24376 13.5447 1.8734C13.9151 1.50303 14.0103 1.03743 13.8463 0.873416C13.7934 0.820507 13.714 0.794052 13.6135 0.794052Z" fill="#463218"/>
<path d="M16.6346 4.68814C15.9892 4.68814 15.4548 4.38126 15.3119 3.87334C15.1214 3.20668 15.6717 2.48712 16.5659 2.22787C16.968 2.11147 17.3807 2.11147 17.7299 2.22257C18.1267 2.34956 18.4071 2.6141 18.5023 2.95801C18.5976 3.29663 18.5023 3.67228 18.2325 3.98974C17.9944 4.27016 17.6452 4.48708 17.2431 4.60348C17.0368 4.65639 16.8304 4.68814 16.6346 4.68814ZM17.1743 2.87865C17.042 2.87865 16.9045 2.89981 16.7669 2.93685C16.259 3.0797 15.9521 3.43948 16.0156 3.66699C16.0791 3.88921 16.5288 4.03207 17.0368 3.88921C17.296 3.81514 17.5235 3.67757 17.6664 3.51356C17.714 3.45536 17.8304 3.30192 17.7881 3.16436C17.7457 3.02679 17.5711 2.95801 17.4971 2.93156C17.4018 2.89452 17.2907 2.87865 17.1743 2.87865Z" fill="#463218"/>
<path d="M18.6119 9.08668C18.8523 8.67549 18.5482 8.05039 17.9327 7.69047C17.3172 7.33055 16.6233 7.37212 16.3829 7.78331C16.1424 8.1945 16.4465 8.8196 17.062 9.17952C17.6775 9.53944 18.3714 9.49787 18.6119 9.08668Z" fill="#E56823"/>
<path d="M17.9044 9.79383C17.5658 9.79383 17.206 9.68801 16.878 9.49754C16.5182 9.2859 16.2325 8.98961 16.0738 8.66157C15.8939 8.28592 15.8886 7.89968 16.0685 7.59281C16.2483 7.28594 16.587 7.10076 16.9997 7.0743C17.3647 7.05314 17.7668 7.15366 18.1266 7.3653C18.4864 7.57694 18.7721 7.87323 18.9308 8.20126C19.1107 8.57692 19.116 8.96315 18.9361 9.27003C18.7562 9.5769 18.4176 9.76208 18.0049 9.78854C17.9679 9.79383 17.9361 9.79383 17.9044 9.79383ZM17.2483 8.86263C17.4811 9.00019 17.7404 9.06897 17.9573 9.0531C18.0367 9.04781 18.2219 9.02665 18.2959 8.89966C18.37 8.77268 18.2959 8.59808 18.2642 8.5293C18.1689 8.33354 17.9838 8.14306 17.751 8.0055C17.5182 7.86794 17.2589 7.79915 17.042 7.81503C16.9626 7.82032 16.7774 7.84148 16.7034 7.96846C16.6293 8.09545 16.7034 8.27005 16.7351 8.33883C16.8303 8.53459 17.0155 8.72506 17.2483 8.86263Z" fill="#463218"/>
</svg>
