<svg width="24" height="25" viewBox="0 0 24 25" fill="none" xmlns="http://www.w3.org/2000/svg">
<path d="M7.5 23.3071C8.32843 23.3071 9 22.6356 9 21.8071C9 20.9787 8.32843 20.3071 7.5 20.3071C6.67157 20.3071 6 20.9787 6 21.8071C6 22.6356 6.67157 23.3071 7.5 23.3071Z" fill="white"/>
<path d="M18 23.3071C18.8284 23.3071 19.5 22.6356 19.5 21.8071C19.5 20.9787 18.8284 20.3071 18 20.3071C17.1716 20.3071 16.5 20.9787 16.5 21.8071C16.5 22.6356 17.1716 23.3071 18 23.3071Z" fill="white"/>
<path d="M21 6.05704H4.365L3.75 2.90704C3.71494 2.73508 3.62068 2.58086 3.48364 2.47123C3.34661 2.3616 3.17546 2.3035 3 2.30704H0V3.80704H2.385L5.25 18.207C5.28506 18.379 5.37932 18.5332 5.51636 18.6428C5.6534 18.7525 5.82454 18.8106 6 18.807H19.5V17.307H6.615L6 14.307H19.5C19.6734 14.3113 19.8429 14.2553 19.9796 14.1486C20.1163 14.042 20.2119 13.8912 20.25 13.722L21.75 6.97204C21.7751 6.86076 21.7745 6.74521 21.7483 6.63419C21.722 6.52316 21.6708 6.4196 21.5985 6.33137C21.5262 6.24313 21.4347 6.17256 21.3309 6.12503C21.2272 6.07749 21.1141 6.05423 21 6.05704ZM18.9 12.807H5.715L4.665 7.55704H20.0625L18.9 12.807Z" fill="white"/>
</svg>
