<svg width="15" height="14" viewBox="0 0 15 14" fill="none" xmlns="http://www.w3.org/2000/svg">
<g clip-path="url(#clip0_214_7235)">
<path d="M14.6607 5.37023C14.569 5.08675 14.3176 4.8854 14.0201 4.85859L9.9793 4.49168L8.38147 0.751797C8.26365 0.477711 7.99533 0.300293 7.69722 0.300293C7.3991 0.300293 7.13078 0.477711 7.01296 0.752438L5.41513 4.49168L1.3737 4.85859C1.07676 4.88604 0.82596 5.08675 0.733779 5.37023C0.641598 5.65372 0.726729 5.96465 0.95136 6.16066L4.00571 8.83935L3.10506 12.8067C3.03915 13.0985 3.15237 13.4 3.39442 13.575C3.52452 13.669 3.67673 13.7168 3.83022 13.7168C3.96256 13.7168 4.09384 13.6811 4.21165 13.6106L7.69722 11.5274L11.1815 13.6106C11.4365 13.764 11.7579 13.75 11.9994 13.575C12.2415 13.3995 12.3546 13.0978 12.2887 12.8067L11.3881 8.83935L14.4424 6.16119C14.6671 5.96465 14.7528 5.65425 14.6607 5.37023Z" fill="#FFC107"/>
</g>
<defs>
<clipPath id="clip0_214_7235">
<rect width="14" height="14" fill="white" transform="translate(0.697144)"/>
</clipPath>
</defs>
</svg>
